<svg class="size-12" viewBox="0 0 148 148" fill="none">
    <path
      fill-rule="evenodd"
      clip-rule="evenodd"
      d="M74 148C114.869 148 148 114.869 148 74C148 33.1309 114.869 0 74 0C33.1309 0 0 33.1309 0 74C0 114.869 33.1309 148 74 148ZM42 47.9184V100.082C42 107.592 47.7618 114 55.3913 114H92.6088C100.238 114 106 107.592 106 100.082C106 97.8724 104.209 96.0816 102 96.0816C99.7908 96.0816 98 97.8724 98 100.082C98 103.591 95.414 106 92.6088 106H55.3913C52.586 106 50 103.591 50 100.082C50 96.4956 52.5839 94.3428 55.1104 94.5208C55.2039 94.5272 55.2976 94.5308 55.3913 94.5308H92.2608C99.8904 94.5308 105.652 88.1232 105.652 80.6124V47.9184C105.652 40.5086 99.9848 34 92.6088 34H55.3913C47.7618 34 42 40.4076 42 47.9184ZM55.3913 42C52.586 42 50 44.4087 50 47.9184V87.458C51.661 86.7572 53.5205 86.4128 55.5194 86.5308H92.2608C95.066 86.5308 97.652 84.122 97.652 80.6124V47.9184C97.652 44.3077 94.9716 42 92.6088 42H55.3913Z"
      fill="#7E62CA"></path>
  </svg>
